<?xml version="1.0" standalone="no"?>
<!DOCTYPE svg PUBLIC "-//W3C//DTD SVG 20010904//EN"
 "http://www.w3.org/TR/2001/REC-SVG-20010904/DTD/svg10.dtd">
<svg version="1.0" xmlns="http://www.w3.org/2000/svg"
 width="472.000000pt" height="472.000000pt" viewBox="0 0 472.000000 472.000000"
 preserveAspectRatio="xMidYMid meet">
<metadata>
Created by potrace 1.11, written by Peter Selinger 2001-2013
</metadata>
<g transform="translate(0.000000,472.000000) scale(0.100000,-0.100000)"
fill="#000000" stroke="none">
<path d="M2588 4469 c-26 -13 -70 -20 -63 -9 10 16 -11 12 -25 -5 -7 -9 -19
-14 -27 -11 -7 3 -25 1 -40 -5 -14 -5 -52 -10 -82 -10 -92 -1 -220 -32 -294
-71 -11 -5 -21 -7 -24 -4 -3 3 -22 -3 -42 -13 -20 -10 -53 -27 -73 -37 -21
-10 -38 -22 -38 -27 0 -4 -4 -5 -10 -2 -5 3 -21 -5 -34 -19 -13 -14 -27 -26
-31 -26 -4 0 -16 -9 -25 -20 -10 -12 -23 -19 -30 -18 -6 2 -32 -26 -57 -62
-25 -36 -58 -80 -74 -99 -16 -19 -29 -38 -29 -43 0 -16 -45 -78 -57 -78 -12 0
-17 -13 -14 -34 1 -5 -4 -16 -12 -25 -15 -17 -37 -96 -37 -132 0 -12 -11 -32
-25 -45 -22 -20 -24 -31 -24 -91 0 -37 -7 -108 -15 -156 -8 -49 -12 -95 -10
-102 3 -7 1 -16 -4 -19 -6 -4 -6 -21 0 -48 6 -24 10 -62 9 -86 -1 -24 4 -52 9
-63 6 -11 7 -25 3 -32 -12 -19 -12 -36 -1 -43 5 -4 -4 -20 -21 -38 -17 -18
-33 -45 -36 -61 -2 -17 -9 -50 -14 -75 -6 -25 -10 -69 -11 -97 0 -29 -5 -72
-12 -96 -15 -59 3 -225 30 -271 19 -33 19 -35 1 -122 -10 -49 -16 -96 -13
-106 2 -9 0 -19 -6 -23 -16 -10 -11 -269 6 -320 8 -22 14 -50 14 -62 0 -12 5
-25 10 -28 6 -4 8 -10 5 -15 -3 -5 2 -24 11 -43 16 -33 16 -42 -6 -164 l-23
-128 -49 -48 c-27 -27 -55 -46 -61 -44 -7 2 -41 -4 -77 -15 -36 -10 -99 -25
-140 -34 -101 -21 -136 -39 -162 -85 -19 -35 -30 -42 -92 -60 -121 -36 -428
-195 -744 -386 l-22 -13 0 -350 0 -350 998 1 c548 0 1017 4 1042 9 39 8 35 8
-25 5 -54 -4 -75 -1 -90 11 -14 11 -16 18 -7 21 6 3 12 11 12 19 0 8 10 14 23
15 13 0 16 2 7 6 -45 15 -46 15 -25 23 19 8 19 8 -5 18 l-25 11 28 0 c16 1 38
-4 49 -10 15 -8 19 -8 14 0 -7 11 -3 12 51 14 18 1 34 6 37 12 2 7 -12 10 -40
10 -25 -1 -47 1 -49 5 -4 7 78 21 115 20 45 -1 77 1 94 6 12 4 16 2 12 -5 -4
-6 0 -11 9 -11 9 0 14 -4 11 -9 -4 -5 3 -7 14 -4 26 7 28 -24 3 -43 -11 -8
-13 -13 -5 -14 6 0 12 -5 12 -11 0 -6 -6 -9 -12 -7 -7 3 -26 -1 -43 -8 l-30
-13 35 0 c19 -1 40 3 45 7 19 14 38 61 32 81 -4 16 0 21 14 21 10 0 18 3 18 8
-3 19 2 25 11 12 8 -13 10 -13 10 1 0 19 50 33 50 15 0 -6 5 -3 11 6 13 23 44
24 35 2 -3 -8 1 -22 9 -31 13 -13 21 -13 45 -3 16 7 27 16 24 21 -3 5 5 9 18
10 40 1 81 10 97 20 12 7 5 8 -22 4 -37 -6 -38 -6 -19 13 10 10 33 25 50 33
17 7 29 16 27 19 -2 4 15 16 38 28 23 12 38 22 32 23 -5 0 1 4 14 8 14 4 27
13 29 21 5 13 3 13 -11 1 -10 -7 -17 -9 -17 -4 0 5 18 19 40 31 22 11 40 17
40 11 0 -5 -4 -9 -10 -9 -5 0 -10 -5 -10 -10 0 -6 8 -5 20 2 11 7 20 21 20 30
0 12 5 15 16 11 9 -3 13 -12 9 -22 -5 -14 -4 -14 12 1 16 17 16 19 -2 33 -19
16 -19 16 2 6 29 -15 27 -17 52 34 12 25 27 45 32 45 13 0 12 -4 -12 -44 -13
-22 -16 -36 -9 -36 7 0 9 -8 5 -22 -5 -18 -4 -20 4 -8 6 8 11 10 11 4 0 -17
-80 -147 -113 -181 -16 -17 -50 -41 -76 -52 -51 -22 -87 -56 -70 -67 24 -14
-18 -23 -96 -19 -86 4 -131 -12 -130 -45 1 -20 -25 -38 -82 -55 -59 -18 -87
-19 -77 -3 5 7 3 8 -5 3 -8 -4 -9 -11 -4 -16 5 -5 512 -8 1198 -7 l1188 3
-138 123 c-77 68 -180 153 -231 188 -97 67 -449 291 -594 377 -47 28 -146 89
-220 135 -127 80 -325 182 -354 182 -7 0 -32 23 -55 50 -23 28 -60 59 -82 70
-42 22 -49 37 -21 47 9 3 28 16 42 29 73 69 139 128 175 156 22 17 48 48 58
70 10 21 26 38 34 38 9 0 13 6 9 15 -3 8 -1 15 4 15 6 0 10 9 10 20 0 11 5 20
10 20 6 0 10 4 10 9 0 5 5 22 12 38 12 28 14 38 22 121 3 24 10 50 16 57 8 9
8 15 0 20 -7 4 -7 12 0 26 6 11 8 24 5 29 -3 5 0 12 6 15 5 4 8 13 5 20 -6 16
66 267 99 344 13 31 31 84 39 119 17 65 45 132 56 132 3 0 6 10 7 21 1 12 11
31 21 43 11 11 27 36 36 54 9 17 20 32 25 32 4 0 14 19 21 43 7 23 24 57 37
75 15 20 22 39 18 52 -3 10 3 37 14 61 12 23 24 58 27 78 4 20 14 52 22 71 21
49 32 204 18 260 -3 13 -1 42 5 63 7 28 7 43 0 50 -6 6 -11 29 -11 52 0 23 -5
46 -11 52 -5 5 -13 36 -16 67 -3 31 -10 56 -14 56 -5 0 -9 10 -9 23 0 12 -7
31 -15 41 -8 11 -15 28 -15 38 0 10 -7 21 -15 24 -8 4 -20 26 -26 50 -6 24
-15 44 -20 44 -5 0 -15 13 -24 30 -15 29 -249 270 -263 270 -4 0 -23 15 -42
33 -19 17 -37 32 -40 32 -3 0 -16 10 -29 22 -13 12 -28 20 -33 17 -4 -3 -8 0
-8 5 0 6 -4 11 -9 11 -6 0 -22 11 -37 25 -15 14 -51 39 -81 56 -29 17 -53 35
-53 40 0 5 -9 9 -20 9 -12 0 -31 7 -43 15 -13 8 -33 16 -45 18 -12 2 -28 9
-34 15 -7 7 -19 12 -27 12 -8 0 -42 10 -75 21 -41 15 -61 18 -64 10 -3 -8 -9
-8 -25 1 -24 13 -158 19 -179 7z m322 -835 c0 -8 8 -14 18 -14 10 0 32 -13 48
-30 28 -28 52 -41 39 -20 -3 6 1 10 9 10 20 0 21 -19 1 -26 -24 -9 -67 5 -59
19 5 9 4 9 -6 0 -9 -9 -19 -9 -34 -2 -20 10 -20 9 -2 -5 10 -8 15 -20 11 -26
-4 -6 1 -18 11 -25 18 -14 18 -14 -5 -15 -30 0 -21 -12 12 -15 20 -2 24 1 19
17 -2 11 -11 22 -18 25 -8 3 -11 9 -8 14 3 5 19 2 35 -7 31 -15 48 -10 72 21
4 6 10 5 16 -4 5 -7 13 -11 17 -8 5 3 10 -6 10 -19 2 -19 -3 -24 -22 -24 -13
0 -24 -2 -24 -5 0 -15 33 -54 41 -49 5 3 9 2 8 -3 -3 -20 2 -27 11 -13 8 13
10 12 10 -2 0 -10 5 -18 11 -18 18 0 46 -33 31 -38 -8 -2 -9 -9 -2 -23 7 -13
7 -19 0 -19 -5 0 -10 7 -10 15 0 8 -4 15 -10 15 -6 0 -6 -9 -1 -22 6 -16 16
-22 32 -20 23 3 23 2 4 -12 -25 -19 -35 -20 -35 -2 0 23 -45 70 -59 62 -6 -4
-9 -16 -6 -27 4 -10 2 -19 -4 -19 -6 0 -8 -7 -5 -15 4 -8 13 -15 22 -15 11 0
13 3 5 11 -5 5 -8 21 -5 35 4 22 6 23 17 7 7 -9 11 -23 8 -29 -5 -14 33 -38
46 -30 5 3 14 -1 21 -10 10 -12 11 -17 1 -27 -10 -9 -11 -8 -5 6 5 14 2 16
-17 13 -13 -2 -23 -9 -21 -15 4 -19 -36 -55 -64 -59 -22 -2 -25 0 -20 14 5 14
4 15 -9 4 -12 -10 -18 -10 -30 0 -11 9 -15 9 -15 1 0 -7 -5 -9 -11 -5 -8 4 -9
0 -4 -15 6 -19 3 -20 -23 -15 -18 4 -32 1 -37 -5 -5 -9 -10 -9 -21 0 -10 8
-14 8 -14 0 0 -11 13 -15 39 -12 7 2 10 -2 6 -8 -8 -14 1 -14 25 1 15 10 22
10 31 1 9 -9 6 -10 -11 -6 -19 5 -22 3 -17 -10 8 -21 -10 -32 -28 -17 -9 7
-15 8 -20 0 -3 -5 -1 -10 5 -10 7 0 10 -7 6 -15 -3 -8 -1 -15 5 -15 6 0 17 7
25 15 9 8 20 15 25 15 5 0 -1 -10 -13 -22 -13 -13 -29 -21 -37 -20 -13 3 -13
1 -2 -12 10 -12 10 -16 2 -16 -7 0 -9 -5 -6 -10 4 -6 10 -8 15 -5 4 3 10 -1
13 -8 3 -7 -5 -13 -21 -14 -19 -1 -21 1 -11 8 10 7 6 9 -15 7 -28 -3 -51 -28
-26 -28 6 0 8 5 5 10 -3 6 -1 10 4 10 6 0 11 -5 11 -11 0 -6 6 -17 14 -24 12
-12 15 -12 20 1 3 8 11 12 17 9 6 -4 8 -14 5 -22 -3 -8 1 -24 9 -36 13 -18 15
-19 15 -4 0 9 -4 17 -10 17 -22 0 -9 15 14 16 17 1 23 -2 19 -12 -3 -8 -1 -14
5 -14 5 0 13 7 16 16 9 25 30 11 33 -22 2 -21 -4 -33 -18 -43 -15 -9 -19 -9
-14 0 5 7 3 10 -6 7 -8 -3 -15 -15 -17 -29 -2 -16 0 -20 6 -12 4 7 22 15 40
17 17 2 39 9 47 16 9 8 15 8 15 2 0 -6 -9 -14 -20 -17 -11 -4 -18 -11 -14 -16
3 -5 14 -7 24 -4 10 3 21 1 25 -5 5 -8 12 -7 23 2 14 11 15 10 9 -6 -6 -14 -4
-17 8 -12 9 3 21 -4 31 -19 10 -16 26 -25 43 -26 l26 0 -25 -10 c-26 -11 -60
-8 -95 6 -18 8 -19 7 -5 -10 14 -17 13 -18 -3 -12 -10 4 -24 7 -30 7 -8 0 -7
3 2 9 10 7 10 10 1 16 -7 4 -15 3 -19 -2 -10 -16 -131 -25 -132 -10 0 9 -2 9
-5 0 -4 -8 -12 -8 -32 3 -24 12 -27 12 -30 -1 -3 -13 -5 -13 -18 0 -8 8 -21
12 -29 8 -8 -3 -27 2 -41 12 -15 10 -35 14 -49 11 -17 -4 -29 0 -42 16 -10 13
-30 29 -45 37 -15 8 -27 17 -26 20 1 3 -2 14 -7 24 -6 15 -10 16 -16 5 -7 -10
-9 -9 -9 4 0 9 -3 25 -6 35 -5 17 -5 17 9 1 19 -24 30 -23 17 2 -9 17 -8 20 9
20 14 0 19 5 15 15 -4 8 -11 12 -16 9 -6 -4 -5 4 2 16 8 16 14 19 20 11 5 -9
11 -8 24 4 9 9 16 13 16 8 0 -4 5 0 11 10 6 10 8 21 5 24 -3 4 -6 1 -6 -5 0
-7 -4 -12 -10 -12 -5 0 -10 7 -10 15 0 8 5 15 11 15 6 0 3 7 -5 16 -9 8 -14
20 -10 25 3 5 -2 12 -10 15 -9 3 -16 13 -16 21 0 12 2 12 16 -1 8 -9 21 -16
27 -16 8 0 7 3 -2 9 -10 7 -11 10 -1 16 10 6 9 11 -4 20 -17 13 -13 45 6 45 6
0 8 -7 4 -15 -4 -12 -2 -13 14 -2 13 8 16 13 8 16 -7 2 -19 11 -27 19 -13 13
-12 14 9 7 23 -7 24 -7 10 10 -9 11 -10 16 -2 11 6 -4 12 -2 12 3 0 15 -23 14
-38 -1 -9 -9 -12 -8 -12 4 0 9 5 18 11 20 7 2 5 9 -5 17 -14 12 -16 11 -10 -5
5 -14 4 -16 -4 -9 -14 13 -4 55 12 49 14 -5 38 53 25 60 -5 2 -4 3 3 2 7 -2
13 -15 13 -29 -1 -15 3 -27 7 -27 4 0 8 5 8 11 0 6 7 9 15 5 19 -7 19 4 0 18
-14 10 -14 14 1 34 11 17 23 22 38 18 19 -5 19 -4 -4 15 -14 12 -18 19 -10 16
10 -3 15 3 16 19 1 13 -2 24 -8 24 -5 0 -6 -4 -3 -10 3 -5 0 -10 -9 -10 -8 0
-23 -3 -33 -6 -10 -3 -1 5 19 18 22 13 36 29 33 36 -3 9 2 12 18 8 12 -3 16
-3 10 0 -7 3 -13 14 -13 24 0 15 6 17 45 13 37 -3 45 -1 45 12 0 22 -27 30
-47 14 -14 -12 -16 -12 -8 1 17 29 29 37 47 32 10 -2 18 -11 18 -18z m70 -4
c0 -5 -7 -7 -15 -4 -8 4 -12 10 -9 15 6 11 24 2 24 -11z m-95 -20 c-3 -5 -12
-10 -18 -10 -7 0 -6 4 3 10 19 12 23 12 15 0z m225 -124 c0 -2 -7 -9 -15 -16
-13 -11 -14 -10 -9 4 5 14 24 23 24 12z m-350 -16 c0 -5 -5 -10 -11 -10 -5 0
-7 5 -4 10 3 6 8 10 11 10 2 0 4 -4 4 -10z m434 -104 c-3 -9 -10 -16 -15 -16
-5 0 -4 9 3 20 14 22 21 20 12 -4z m-544 -26 c0 -5 -5 -10 -11 -10 -5 0 -7 5
-4 10 3 6 8 10 11 10 2 0 4 -4 4 -10z m9 -60 c0 -10 -3 -8 -9 5 -12 27 -12 43
0 25 5 -8 9 -22 9 -30z m483 -82 c-7 -7 -12 -8 -12 -2 0 6 3 14 7 17 3 4 9 5
12 2 2 -3 -1 -11 -7 -17z m-106 -11 c8 3 14 1 14 -5 0 -5 -9 -12 -20 -15 -11
-3 -18 -1 -14 4 3 5 0 9 -5 9 -6 0 -11 5 -11 12 0 9 3 9 11 1 6 -6 18 -9 25
-6z m-36 -121 c0 -2 -7 -7 -16 -10 -8 -3 -12 -2 -9 4 6 10 25 14 25 6z m-855
-306 c4 -6 11 -7 17 -4 7 4 8 2 4 -4 -5 -9 -13 -9 -27 -2 -10 6 -19 13 -19 15
0 9 19 5 25 -5z m-147 -77 c1 -15 9 -37 17 -50 9 -13 12 -23 7 -23 -11 0 -55
32 -68 49 -21 29 -19 36 11 42 17 4 30 7 30 8 0 0 2 -11 3 -26z m142 12 c0 -8
-7 -15 -15 -15 -8 0 -15 7 -15 15 0 8 7 15 15 15 8 0 15 -7 15 -15z m85 -41
c14 -15 25 -30 25 -33 0 -4 14 -15 31 -25 17 -10 29 -19 27 -20 -2 -1 -50 0
-108 3 -102 6 -104 6 -75 21 17 8 37 30 45 47 18 40 24 40 55 7z m924 -68 c9
-11 8 -15 -4 -20 -9 -3 -13 -2 -10 4 3 6 -2 10 -12 10 -15 0 -16 2 -3 10 19
12 16 12 29 -4z m-769 -36 c0 -5 -2 -10 -4 -10 -3 0 -8 5 -11 10 -3 6 -1 10 4
10 6 0 11 -4 11 -10z m-76 -9 c17 -7 26 -7 30 2 3 9 5 9 5 0 1 -19 -12 -21
-49 -7 -19 7 -30 13 -23 13 6 1 23 -3 37 -8z m313 -53 c-6 -24 -13 -45 -17
-48 -10 -7 -19 -50 -12 -50 8 0 8 -63 0 -76 -3 -5 -9 -24 -13 -41 -3 -18 -12
-33 -18 -33 -7 0 -1 -9 13 -20 14 -10 22 -22 18 -26 -4 -4 -15 -1 -24 7 -13
11 -18 11 -21 2 -3 -7 -11 -13 -18 -13 -8 0 -17 -5 -21 -11 -3 -6 1 -10 12 -9
32 4 45 0 40 -9 -4 -5 7 -12 24 -16 21 -5 32 -14 36 -31 3 -13 9 -24 13 -24
13 0 51 -99 45 -115 -8 -19 -23 -20 -30 -1 -3 8 -13 12 -26 8 -14 -3 -19 -1
-14 6 7 12 -32 11 -52 -2 -7 -4 -16 -5 -21 -1 -5 3 -13 1 -16 -5 -5 -8 -11 -7
-21 1 -11 9 -14 8 -15 -2 0 -8 -5 -2 -11 14 -5 15 -13 25 -18 22 -10 -6 -24
51 -15 65 3 5 0 7 -8 4 -8 -3 -18 -1 -21 5 -4 6 5 13 19 17 14 3 25 12 25 19
0 6 14 26 30 43 17 18 30 36 30 41 0 5 5 11 12 13 6 2 12 16 12 31 1 19 -2 26
-11 23 -7 -3 -13 -1 -13 4 0 6 5 10 10 10 6 0 10 7 10 16 0 9 5 12 12 8 8 -5
9 0 6 14 -4 13 -1 22 5 22 6 0 8 3 5 6 -4 3 -2 20 3 37 5 17 10 54 11 81 2 57
15 78 39 65 15 -7 15 -15 6 -51z m508 13 c-8 -14 -45 -14 -45 0 0 6 9 8 20 4
13 -4 20 -2 20 6 0 7 3 10 6 6 3 -3 3 -10 -1 -16z m-360 -61 c-3 -5 -10 -10
-16 -10 -5 0 -9 5 -9 10 0 6 7 10 16 10 8 0 12 -4 9 -10z m189 -4 c-9 -24 25
-76 61 -93 44 -21 85 -5 111 42 20 38 34 34 59 -16 21 -40 -1 -54 -85 -53 -59
2 -76 7 -131 39 -35 20 -66 39 -68 41 -2 2 4 15 13 29 17 26 49 35 40 11z
m131 4 c3 -5 -3 -10 -14 -10 -12 0 -21 5 -21 10 0 6 6 10 14 10 8 0 18 -4 21
-10z m-1182 -25 c-7 -21 -13 -19 -13 6 0 11 4 18 10 14 5 -3 7 -12 3 -20z
m965 -4 c3 -8 -1 -12 -9 -9 -7 2 -15 10 -17 17 -3 8 1 12 9 9 7 -2 15 -10 17
-17z m-928 -81 c0 -5 -5 -10 -11 -10 -5 0 -7 5 -4 10 3 6 8 10 11 10 2 0 4 -4
4 -10z m-63 -40 c-1 -11 -5 -20 -9 -20 -10 0 -10 4 -2 24 8 22 13 20 11 -4z
m1160 14 c-3 -3 -12 -4 -19 -1 -8 3 -5 6 6 6 11 1 17 -2 13 -5z m439 -26 c-3
-13 -8 -49 -11 -81 -4 -32 -9 -57 -11 -54 -9 8 8 157 18 157 4 0 6 -10 4 -22z
m-643 -40 c12 -13 26 -23 30 -23 4 0 12 -7 17 -15 5 -8 10 -11 10 -6 0 5 7 3
15 -4 8 -7 12 -16 9 -21 -3 -5 4 -9 15 -9 14 0 21 -6 21 -19 0 -10 7 -21 15
-25 18 -6 18 -5 5 31 -10 27 -9 27 5 8 9 -11 23 -19 31 -17 8 2 22 -4 31 -13
13 -13 18 -14 24 -3 7 10 9 10 9 1 0 -7 5 -13 11 -13 5 0 8 4 4 9 -8 13 68 1
76 -12 11 -16 42 1 35 19 -5 14 -4 15 8 5 12 -10 13 -18 3 -38 -8 -18 -8 -29
0 -42 9 -14 9 -21 0 -30 -8 -8 -8 -11 1 -11 7 0 12 -6 12 -14 0 -7 10 -17 23
-20 l22 -7 -25 -11 c-23 -9 -24 -11 -6 -17 14 -5 16 -10 8 -15 -7 -4 -16 -5
-21 -1 -6 3 -14 -3 -20 -12 -6 -11 -11 -13 -11 -5 0 10 -5 10 -22 -2 -16 -11
-25 -13 -35 -4 -7 6 -29 8 -48 5 -25 -4 -37 -1 -43 10 -5 8 -12 14 -15 14 -23
-3 -35 2 -61 24 -18 15 -24 25 -15 26 8 0 -1 5 -18 10 -18 5 -32 14 -30 21 1
6 -4 13 -12 16 -8 3 -11 0 -7 -7 5 -8 1 -8 -18 0 l-25 12 21 17 c18 14 19 20
9 36 -10 15 -12 16 -7 2 8 -27 -9 -21 -22 7 -8 17 -20 25 -38 25 -14 0 -24 5
-22 11 2 6 7 10 12 9 5 -1 13 4 17 12 7 10 9 10 9 1 0 -7 5 -13 11 -13 6 0 9
7 6 15 -5 11 -1 12 20 4 18 -7 30 -6 37 1 5 5 7 11 3 11 -13 3 -27 7 -29 9
-10 7 -48 5 -48 -4 0 -19 -31 21 -33 42 -1 12 -5 22 -9 22 -4 0 -8 5 -8 10 0
18 40 10 63 -12z m675 -19 c-6 -16 -12 -28 -14 -26 -5 5 13 57 20 57 3 0 0
-14 -6 -31z m-273 -139 c-3 -5 -11 -10 -16 -10 -6 0 -7 5 -4 10 3 6 11 10 16
10 6 0 7 -4 4 -10z m-405 -20 c0 -5 -2 -10 -4 -10 -3 0 -8 5 -11 10 -3 6 -1
10 4 10 6 0 11 -4 11 -10z m617 -12 c-3 -8 -6 -5 -6 6 -1 11 2 17 5 13 3 -3 4
-12 1 -19z m-10 -40 c-3 -8 -6 -5 -6 6 -1 11 2 17 5 13 3 -3 4 -12 1 -19z
m-722 -15 c-5 -15 -4 -16 6 -5 20 19 49 15 49 -7 0 -21 -19 -31 -60 -31 -27 0
-28 1 -17 30 6 17 15 30 20 30 5 0 6 -8 2 -17z m545 -83 c0 -5 -4 -10 -10 -10
-5 0 -10 5 -10 10 0 6 5 10 10 10 6 0 10 -4 10 -10z m-740 -151 c0 -6 -6 -9
-14 -6 -7 3 -18 1 -24 -5 -6 -6 -16 -7 -22 -3 -8 5 -9 10 -2 14 19 11 62 11
62 0z m-190 -36 c0 -11 3 -14 8 -7 7 11 52 14 52 4 0 -11 41 -50 52 -50 6 0 8
11 5 29 -5 25 -3 28 13 24 12 -3 16 -10 13 -21 -5 -10 -3 -13 6 -8 7 5 10 17
8 28 -5 16 -1 19 26 16 28 -3 32 -6 30 -30 -2 -32 8 -35 31 -12 9 8 21 12 28
8 7 -5 3 -11 -13 -17 -18 -7 -20 -11 -9 -15 8 -3 18 -10 22 -16 5 -7 8 -5 8 6
0 15 3 16 33 3 19 -8 44 -11 55 -8 16 4 22 1 22 -11 0 -10 3 -15 8 -13 4 2 17
-7 29 -20 25 -26 23 -29 -7 -10 -17 10 -22 9 -29 -1 -7 -11 -10 -11 -22 0 -8
7 -25 14 -39 14 -14 1 -41 5 -60 8 -19 4 -42 6 -50 5 -77 -7 -160 -1 -183 14
-15 9 -33 17 -42 17 -17 0 -38 43 -24 48 5 2 9 10 9 18 0 8 5 14 10 14 6 0 10
-8 10 -17z m100 -18 c0 -8 -2 -15 -4 -15 -2 0 -6 7 -10 15 -3 8 -1 15 4 15 6
0 10 -7 10 -15z m-370 -58 c0 -7 10 -24 22 -37 17 -18 18 -22 5 -17 -9 3 -17
2 -17 -3 0 -16 -30 -11 -36 5 -8 20 4 65 16 65 6 0 10 -6 10 -13z m124 -48
c22 -26 29 -29 41 -19 12 10 24 10 60 0 41 -11 45 -15 45 -44 l0 -31 13 25
c11 21 18 24 57 22 25 -2 50 -10 57 -18 9 -12 16 -13 32 -5 53 29 81 -4 53
-62 -13 -28 -13 -29 10 -22 31 10 34 13 21 26 -12 12 -6 39 11 51 6 4 23 8 39
8 29 0 35 -17 16 -51 -8 -16 -7 -23 4 -32 20 -17 26 -39 15 -62 -8 -18 -8 -18
-4 2 2 13 0 25 -4 28 -12 7 -40 -5 -40 -17 0 -6 6 -5 15 2 10 9 15 9 15 1 0
-6 -5 -11 -11 -11 -5 0 -7 -4 -4 -10 3 -6 -1 -7 -9 -4 -11 4 -16 0 -16 -10 0
-9 -4 -16 -10 -16 -5 0 -10 5 -10 12 0 27 -16 -9 -19 -44 -2 -15 -21 -8 -21 7
0 20 -16 19 -24 -2 -6 -14 -8 -14 -21 3 -10 13 -14 15 -15 5 0 -9 -4 -10 -12
-4 -7 6 -21 13 -32 17 -14 5 -17 2 -12 -9 3 -8 1 -15 -4 -15 -6 0 -10 4 -10
10 0 5 -23 16 -52 25 -62 18 -61 18 -52 3 5 -8 2 -9 -12 -4 -10 5 -27 11 -36
13 -10 3 -15 9 -12 14 3 5 -1 9 -10 9 -8 0 -16 -5 -18 -10 -2 -6 -13 -4 -26 6
-13 9 -21 22 -18 29 3 8 0 16 -7 18 -7 2 -2 2 11 0 20 -3 23 -1 17 18 -5 14
-4 19 4 15 7 -4 9 -1 5 8 -3 8 -19 20 -36 27 -25 10 -31 10 -39 -2 -8 -12 -11
-10 -8 7 0 3 -7 17 -16 31 -9 14 -12 22 -6 19 6 -4 11 -1 11 8 0 25 22 66 36
66 7 0 24 -14 38 -31z m536 -87 c0 -23 -19 -42 -42 -42 -23 0 -23 29 0 46 24
19 42 17 42 -4z m84 -67 c-4 -18 -9 -23 -14 -14 -5 7 -3 20 3 30 15 24 20 18
11 -16z m-24 -26 c0 -5 -4 -9 -10 -9 -5 0 -10 7 -10 16 0 8 5 12 10 9 6 -3 10
-10 10 -16z m-110 -89 c0 -5 -5 -10 -11 -10 -5 0 -7 5 -4 10 3 6 8 10 11 10 2
0 4 -4 4 -10z m-259 -323 c-10 -9 -11 -8 -5 6 3 10 9 15 12 12 3 -3 0 -11 -7
-18z m142 -744 c-7 -2 -19 -2 -25 0 -7 3 -2 5 12 5 14 0 19 -2 13 -5z m-53
-47 c0 -2 -7 -7 -16 -10 -8 -3 -12 -2 -9 4 6 10 25 14 25 6z m-620 -185 c0 -5
-9 -7 -20 -4 -11 3 -20 7 -20 9 0 2 9 4 20 4 11 0 20 -4 20 -9z"/>
<path d="M2925 3600 c3 -5 11 -10 16 -10 6 0 7 5 4 10 -3 6 -11 10 -16 10 -6
0 -7 -4 -4 -10z"/>
<path d="M2876 3546 c5 -13 4 -17 -4 -12 -7 4 -12 2 -12 -4 0 -8 -9 -10 -26
-6 -21 6 -23 4 -13 -7 19 -20 44 -18 58 5 9 15 10 23 1 32 -8 8 -9 6 -4 -8z"/>
<path d="M3047 3533 c-14 -13 -6 -23 19 -23 22 0 25 2 14 15 -14 16 -23 19
-33 8z"/>
<path d="M2992 3507 c9 -7 16 -20 16 -28 -1 -7 0 -23 0 -33 2 -17 4 -18 15 -7
10 11 10 14 0 18 -7 3 -13 9 -13 15 0 6 7 8 15 4 8 -3 15 -3 15 0 0 9 -44 43
-55 43 -5 0 -2 -5 7 -12z"/>
<path d="M2811 3484 c0 -11 3 -14 6 -6 3 7 2 16 -1 19 -3 4 -6 -2 -5 -13z"/>
<path d="M2896 3485 c4 -8 8 -15 10 -15 2 0 4 7 4 15 0 8 -4 15 -10 15 -5 0
-7 -7 -4 -15z"/>
<path d="M2835 3471 c-6 -11 13 -26 22 -17 4 3 1 6 -6 6 -7 0 -9 5 -6 10 3 6
4 10 1 10 -3 0 -7 -4 -11 -9z"/>
<path d="M2940 3454 c0 -6 6 -16 13 -22 10 -8 16 -6 25 9 7 10 8 19 3 19 -6 0
-13 -5 -17 -11 -4 -8 -9 -7 -15 2 -5 8 -9 9 -9 3z"/>
<path d="M2980 3420 c0 -5 5 -10 10 -10 6 0 10 5 10 10 0 6 -4 10 -10 10 -5 0
-10 -4 -10 -10z"/>
<path d="M2880 3410 c0 -5 5 -10 11 -10 5 0 7 5 4 10 -3 6 -8 10 -11 10 -2 0
-4 -4 -4 -10z"/>
<path d="M3098 3402 c-10 -2 -18 -8 -18 -13 0 -6 9 -7 20 -4 11 4 20 2 20 -4
0 -6 7 -11 15 -11 8 0 15 5 15 10 0 6 -6 10 -14 10 -8 0 -16 4 -18 8 -1 4 -11
6 -20 4z"/>
<path d="M2810 3389 c0 -5 5 -7 10 -4 6 3 10 8 10 11 0 2 -4 4 -10 4 -5 0 -10
-5 -10 -11z"/>
<path d="M2790 3381 c0 -6 4 -13 10 -16 6 -3 7 1 4 9 -7 18 -14 21 -14 7z"/>
<path d="M2886 3374 c-8 -21 -8 -24 4 -24 6 0 10 6 10 14 0 8 6 17 13 19 7 4
6 6 -4 6 -9 1 -20 -6 -23 -15z"/>
<path d="M3020 3380 c0 -5 5 -10 11 -10 5 0 7 5 4 10 -3 6 -8 10 -11 10 -2 0
-4 -4 -4 -10z"/>
<path d="M2960 3376 c0 -2 8 -10 18 -17 15 -13 16 -12 3 4 -13 16 -21 21 -21
13z"/>
<path d="M2920 3363 c8 -3 22 -11 30 -17 13 -10 13 -9 1 7 -7 9 -21 17 -30 16
-13 0 -14 -1 -1 -6z"/>
<path d="M3037 3333 c-4 -3 -7 -11 -7 -17 0 -6 5 -5 12 2 6 6 9 14 7 17 -3 3
-9 2 -12 -2z"/>
<path d="M2971 3327 c2 -1 12 -9 22 -16 15 -12 17 -12 11 3 -3 9 -13 16 -22
16 -8 0 -13 -1 -11 -3z"/>
<path d="M2970 3230 c0 -5 5 -10 11 -10 5 0 7 5 4 10 -3 6 -8 10 -11 10 -2 0
-4 -4 -4 -10z"/>
<path d="M2905 3211 c-28 -6 -28 -7 -8 -13 13 -4 27 0 34 8 6 8 10 13 8 13 -2
-1 -17 -4 -34 -8z"/>
<path d="M2720 3200 c0 -5 5 -10 10 -10 6 0 10 5 10 10 0 6 -4 10 -10 10 -5 0
-10 -4 -10 -10z"/>
<path d="M2950 3200 c0 -5 5 -10 11 -10 5 0 7 5 4 10 -3 6 -8 10 -11 10 -2 0
-4 -4 -4 -10z"/>
<path d="M2835 3180 c-3 -5 -2 -10 4 -10 5 0 13 5 16 10 3 6 2 10 -4 10 -5 0
-13 -4 -16 -10z"/>
<path d="M2700 3109 c0 -5 5 -7 10 -4 6 3 10 8 10 11 0 2 -4 4 -10 4 -5 0 -10
-5 -10 -11z"/>
<path d="M2870 3090 c-7 -13 -7 -21 0 -25 6 -4 10 -3 9 2 -4 22 2 32 16 27 8
-4 15 -4 15 -1 0 16 -31 14 -40 -3z"/>
<path d="M2894 3067 c3 -10 6 -24 6 -30 0 -8 4 -7 12 1 10 10 8 16 -6 30 -18
16 -19 16 -12 -1z"/>
<path d="M2841 3014 c0 -11 3 -14 6 -6 3 7 2 16 -1 19 -3 4 -6 -2 -5 -13z"/>
<path d="M3027 2931 c-16 -16 -16 -20 -2 -31 8 -7 15 -11 16 -9 3 18 7 59 6
58 -1 0 -10 -8 -20 -18z"/>
<path d="M2730 2820 c0 -5 5 -10 11 -10 5 0 7 5 4 10 -3 6 -8 10 -11 10 -2 0
-4 -4 -4 -10z"/>
<path d="M2800 2220 c0 -17 2 -19 14 -8 14 13 12 28 -5 28 -5 0 -9 -9 -9 -20z"/>
<path d="M2900 2139 c0 -5 5 -7 10 -4 6 3 10 8 10 11 0 2 -4 4 -10 4 -5 0 -10
-5 -10 -11z"/>
<path d="M2946 2097 c3 -10 9 -15 12 -12 3 3 0 11 -7 18 -10 9 -11 8 -5 -6z"/>
<path d="M2900 2060 c0 -5 5 -10 10 -10 6 0 10 5 10 10 0 6 -4 10 -10 10 -5 0
-10 -4 -10 -10z"/>
<path d="M2870 2040 c-9 -6 -10 -10 -3 -10 6 0 15 5 18 10 8 12 4 12 -15 0z"/>
<path d="M2935 2030 c-3 -6 1 -7 9 -4 18 7 21 14 7 14 -6 0 -13 -4 -16 -10z"/>
<path d="M2186 1521 c-4 -7 -5 -15 -2 -18 9 -9 19 4 14 18 -4 11 -6 11 -12 0z"/>
<path d="M2225 1439 c-4 -6 -5 -12 -2 -15 2 -3 7 2 10 11 7 17 1 20 -8 4z"/>
<path d="M2608 1444 c-4 -3 -28 -12 -55 -19 -39 -11 -42 -13 -19 -14 38 -1
107 20 100 30 -6 10 -18 12 -26 3z"/>
<path d="M2478 1413 c7 -3 16 -2 19 1 4 3 -2 6 -13 5 -11 0 -14 -3 -6 -6z"/>
<path d="M2198 1403 c7 -3 16 -2 19 1 4 3 -2 6 -13 5 -11 0 -14 -3 -6 -6z"/>
<path d="M2795 360 c-3 -5 -1 -10 4 -10 6 0 11 5 11 10 0 6 -2 10 -4 10 -3 0
-8 -4 -11 -10z"/>
<path d="M2762 348 c-14 -14 -16 -28 -3 -28 5 0 11 9 14 20 6 23 5 24 -11 8z"/>
<path d="M2690 296 c-6 -8 -21 -17 -33 -19 -18 -4 -17 -5 5 -6 18 -1 31 6 38
19 12 23 8 26 -10 6z"/>
<path d="M2665 240 c-3 -5 -2 -10 4 -10 5 0 13 5 16 10 3 6 2 10 -4 10 -5 0
-13 -4 -16 -10z"/>
<path d="M2575 210 c-4 -6 3 -10 14 -10 25 0 27 6 6 13 -8 4 -17 2 -20 -3z"/>
<path d="M2520 191 c-8 -5 -27 -14 -42 -22 -16 -7 -26 -14 -25 -16 5 -4 71 19
77 27 3 4 12 10 20 13 13 5 13 5 0 6 -8 0 -22 -4 -30 -8z"/>
<path d="M2655 182 c-6 -5 -31 -17 -58 -27 -59 -22 -56 -30 6 -11 39 11 45 11
40 0 -3 -8 0 -14 6 -14 7 0 14 7 17 15 4 8 13 15 21 15 18 0 12 24 -8 28 -8 1
-19 -1 -24 -6z"/>
<path d="M2118 163 c7 -3 16 -2 19 1 4 3 -2 6 -13 5 -11 0 -14 -3 -6 -6z"/>
<path d="M2305 160 c-3 -5 -1 -10 4 -10 6 0 11 5 11 10 0 6 -2 10 -4 10 -3 0
-8 -4 -11 -10z"/>
<path d="M2545 160 c-3 -5 -1 -10 4 -10 6 0 11 5 11 10 0 6 -2 10 -4 10 -3 0
-8 -4 -11 -10z"/>
<path d="M2190 140 c8 -5 24 -9 35 -9 l20 0 -20 9 c-11 5 -27 9 -35 9 -13 1
-13 0 0 -9z"/>
<path d="M2680 139 c0 -5 5 -7 10 -4 6 3 10 8 10 11 0 2 -4 4 -10 4 -5 0 -10
-5 -10 -11z"/>
<path d="M1980 96 c0 -2 9 -6 20 -9 11 -3 20 -1 20 4 0 5 -9 9 -20 9 -11 0
-20 -2 -20 -4z"/>
<path d="M2138 93 c6 -2 18 -2 25 0 6 3 1 5 -13 5 -14 0 -19 -2 -12 -5z"/>
<path d="M2058 73 c6 -2 18 -2 25 0 6 3 1 5 -13 5 -14 0 -19 -2 -12 -5z"/>
<path d="M2095 60 c-13 -6 -15 -9 -5 -9 8 0 22 4 30 9 18 12 2 12 -25 0z"/>
<path d="M1935 49 c-11 -17 1 -21 15 -4 8 9 8 15 2 15 -6 0 -14 -5 -17 -11z"/>
<path d="M2010 49 c0 -5 -3 -8 -7 -6 -5 3 -14 -1 -21 -9 -19 -21 12 -19 32 2
19 18 20 24 6 24 -5 0 -10 -5 -10 -11z"/>
<path d="M2285 20 c3 -5 8 -10 11 -10 2 0 4 5 4 10 0 6 -5 10 -11 10 -5 0 -7
-4 -4 -10z"/>
</g>
</svg>
